<svg width="360" height="270" version="1.1" viewBox="0 0 360 270" xmlns="http://www.w3.org/2000/svg">
 <path d="m5 0-5 270 115-5c-9.8162-21.077-64.755-48.709-65.034-65.487-0.17873-10.747 18.323-39.666 25.084-33.18 33.526 32.159 50.377 50.154 67.633 63.688 5.6984 4.4693 32.497-45.428 5.4638-63.656-48.139-32.459-66.841-53.371-91.372-73.463-12.625-10.34 4.7508-35.643 26.454-30.058 31.866 8.1988 75.848 56.156 73.516 49.241-15.878-47.078-23.691-80.329 26.548-73.17 25.778 3.6736 51.707 36.085 32.373 72.237-6.3751 11.92 24.095-11.568 64.114-56.505 19.367-21.747 46.337 23.75 30.457 38.213-10.907 9.9334-66.443 38.49-102.15 85.049-13.295 17.335-7.3778 69.423-3.2108 67.501 4.8051-2.2158 71.927-86.656 84.244-83.812 12.914 2.9816 24.071 7.8017 17.169 33.557-4.6175 17.231-58.879 47.287-56.287 69.845l110 5-5-270-170 5z"/>
</svg>
