<?xml version="1.0" encoding="UTF-8" standalone="no"?>
<svg
   width="360"
   height="270"
   version="1.1"
   viewBox="0 0 360 270"
   id="svg4"
   sodipodi:docname="level_6_.svg"
   inkscape:version="1.1 (c68e22c387, 2021-05-23)"
   xmlns:inkscape="http://www.inkscape.org/namespaces/inkscape"
   xmlns:sodipodi="http://sodipodi.sourceforge.net/DTD/sodipodi-0.dtd"
   xmlns="http://www.w3.org/2000/svg"
   xmlns:svg="http://www.w3.org/2000/svg">
  <defs
     id="defs8" />
  <sodipodi:namedview
     id="namedview6"
     pagecolor="#ffffff"
     bordercolor="#666666"
     borderopacity="1.0"
     inkscape:pageshadow="2"
     inkscape:pageopacity="0.0"
     inkscape:pagecheckerboard="0"
     showgrid="true"
     inkscape:zoom="3.3731612"
     inkscape:cx="231.08886"
     inkscape:cy="208.26161"
     inkscape:window-width="2400"
     inkscape:window-height="1284"
     inkscape:window-x="-9"
     inkscape:window-y="144"
     inkscape:window-maximized="1"
     inkscape:current-layer="svg4">
    <inkscape:grid
       type="xygrid"
       id="grid844" />
  </sodipodi:namedview>
  <path
     id="path4592"
     d="M 5,0 0,270 170,265 157.76142,218.97003 C 97.2352,237.86679 93.120307,219.66541 57.98259,172.24035 49.331967,160.56468 66.628217,132.84945 80.306351,147.99176 107.742,182.40755 110,205 152.46548,182.09197 l 11.72649,-27.67267 c -11.16414,-16.69215 -53.04974,-28.27542 -52.06993,-50.06313 1.88727,-38.124266 81.51478,16.92822 81.38538,15.819 C 180.17139,62.985631 275,75 249.35122,129.39212 244.58922,138.93606 230,141 224.05707,142.63871 c 12.46606,13.20179 40.47975,22.39642 48.98378,39.08258 4.65825,11.42894 2.51168,20.7771 -8.46187,23.45542 -14.90409,0.54885 -39.9018,-18.13932 -54.32371,-26.01774 L 192.41874,199.02493 200,265 360,270 355,0 185,5 Z"
     sodipodi:nodetypes="ccccccccccccccccccccc"
     style="fill:#000000;fill-opacity:1" />
</svg>
