<svg width="360" height="270" version="1.1" viewBox="0 0 360 270" xmlns="http://www.w3.org/2000/svg">
 <path d="m5 0-5 270 90-5c-10.608-41.32 83.73-78.915 58.147-98.634-48.139-32.459-66.841-53.371-91.372-73.463-12.625-10.34 4.7508-35.643 26.454-30.058 31.866 8.1988 75.848 56.156 73.516 49.241-15.878-47.078-23.691-80.329 26.548-73.17 25.778 3.6736 41.041 34.933 21.707 71.085 25.75-12.704 110.79-39.769 102.28-12.739-8.1764 22.167-28.059 28.628-42.277 37.739-31.098 19.888-65.939 25.729-70.477 42.664-4.6175 17.231 102.89 64.778 105.48 87.336l60 5-5-270-170 5z"/>
 <path d="m245 270c-39.687 2.1687-78.544 10.076-120 0 47.945-66.239 61.974-45.592 120 0z" stroke="#000" stroke-width="1px"/>
</svg>
