<svg width="360" height="270" version="1.1" viewBox="0 0 360 270" xmlns="http://www.w3.org/2000/svg">
 <path d="m5 0-5 270 145-5c-10.608-41.32 28.73-78.915 3.1472-98.634-48.139-32.459-66.841-53.371-91.372-73.463-12.625-10.34 4.7508-35.643 26.454-30.058 31.866 8.1988 75.848 56.156 73.516 49.241-15.878-47.078-23.691-80.329 26.548-73.17 25.778 3.6736 56.041 24.933 36.707 61.085 27.752-2.7544 43.778-55.421 73.034-39.457 11.179 6.4693 18.823 23.56 14.243 36.718-8.1764 22.167-29.755 46.38-43.973 55.492-31.098 19.888-48.531 20.427-53.069 37.362-4.6175 17.231-12.827 52.327-10.235 74.885l160 5-5-270-170 5z"/>
</svg>
