<svg width="360" height="270" version="1.1" viewBox="0 0 360 270" xmlns="http://www.w3.org/2000/svg">
 <path d="m5 0 180 5 170-5 5 270-160-5c80.309-36.663-7.5036-53.076 28.084-75.154 33.535-20.805 34.205-39.131-25.383-52.53-9.1554-2.0587-24.737-5.3839-19.899-6.1042 137.28-90.249-152.8-91.211-33.631-2.7278 4.4334 0.52782-9.3178 3.4735-15.657 5.8818-79.143 30.068-30.047 33.715-10.885 48.712 38.743 30.322-23.827 41.021 42.517 80.841-0.14595 1.0822-0.14595 1.0822-165.15 6.0822z" stroke="#000" stroke-width="1px"/>
</svg>
